<svg width="79" height="79" viewBox="0 0 79 79" fill="none" xmlns="http://www.w3.org/2000/svg">
<rect x="0.5" y="0.5" width="78" height="78" rx="39" fill="#9DDAF9"/>
<rect x="0.5" y="0.5" width="78" height="78" rx="39" stroke="#1EB5FF"/>
<path d="M56.9982 21.1277C53.313 23.8738 52.5039 32.8205 52.5039 32.8205C54.0319 31.3146 56.9982 31.3495 56.9982 31.3495C56.9982 31.3495 59.9645 31.3146 61.4925 32.8205C61.4925 32.8205 60.6835 23.8738 56.9982 21.1277Z" fill="#03C9C9"/>
<path d="M57.0015 21.1277C57.0015 21.1277 47.9007 20.9285 45.1367 31.5251C45.1367 31.5251 49.0244 29.4988 52.5072 32.8205C52.5072 32.8205 53.3163 23.8738 57.0015 21.1277Z" fill="#FF8F00"/>
<path d="M57 21.1277C57 21.1277 66.1009 20.9285 68.8648 31.5251C68.8648 31.5251 64.9772 29.4988 61.4943 32.8205C61.4943 32.8205 60.6853 23.8738 57 21.1277Z" fill="#F2DB06"/>
<path d="M57.0015 21.1278C57.0015 21.1278 57.3807 21.1197 58.0073 21.1964C58.0089 21.1735 58.0108 21.1509 58.0108 21.1278C58.0108 20.5785 57.5588 20.1331 57.0015 20.1331C56.4442 20.1331 55.9922 20.5785 55.9922 21.1278C55.9922 21.1509 55.9941 21.1735 55.9957 21.1964C56.6223 21.1197 57.0015 21.1278 57.0015 21.1278Z" fill="white"/>
<path d="M61.4941 32.9536C61.4592 32.9536 61.4245 32.9402 61.3989 32.9147C59.9288 31.4658 57.027 31.4824 57.0017 31.4827C56.9713 31.4819 54.0708 31.4664 52.6012 32.9147C52.561 32.9542 52.4999 32.9647 52.449 32.941C52.3975 32.9174 52.3666 32.8645 52.3716 32.8088C52.405 32.4411 53.2284 23.7717 56.9187 21.0219C56.967 20.9862 57.0334 20.9862 57.0814 21.0219C60.7717 23.772 61.5952 32.4411 61.6285 32.8088C61.6336 32.8645 61.6026 32.9174 61.5512 32.941C61.5328 32.9494 61.5133 32.9536 61.4941 32.9536ZM56.9998 21.2958C53.874 23.7331 52.8706 30.8401 52.6772 32.4887C54.2724 31.2004 56.8846 31.2151 57.0014 31.2167C57.1145 31.2149 59.7269 31.2004 61.3224 32.4887C61.1288 30.8401 60.1248 23.7328 56.9998 21.2958Z" fill="#3D3D3D"/>
<path d="M52.5057 32.9535C52.4713 32.9535 52.4374 32.9406 52.4118 32.9162C49.038 29.6983 45.236 31.6229 45.1981 31.6426C45.1509 31.6673 45.0933 31.662 45.0514 31.6294C45.0096 31.5969 44.9909 31.543 45.0042 31.492C46.4448 25.9692 49.6276 23.4089 52.0441 22.2336C54.6638 20.9592 56.9077 20.9921 57.0027 20.995C57.06 20.9963 57.1101 21.0331 57.128 21.087C57.1456 21.1408 57.1269 21.1997 57.0811 21.2339C53.4854 23.9133 52.6481 32.7435 52.6401 32.8323C52.6356 32.8833 52.6014 32.9272 52.5529 32.9451C52.5374 32.9506 52.5217 32.9535 52.5057 32.9535ZM47.9477 30.7898C49.2628 30.7898 50.8663 31.1721 52.3988 32.5398C52.562 31.0455 53.4843 24 56.6069 21.2738C55.8504 21.3211 54.0878 21.5335 52.1524 22.4775C49.8303 23.61 46.7826 26.0565 45.3378 31.2902C45.781 31.1107 46.7434 30.7898 47.9477 30.7898Z" fill="#3D3D3D"/>
<path d="M61.496 32.9536C61.4803 32.9536 61.4643 32.9509 61.4491 32.9452C61.4003 32.9273 61.3664 32.8834 61.3619 32.8324C61.3539 32.7436 60.5157 23.9128 56.9206 21.2337C56.875 21.1995 56.8561 21.1406 56.8737 21.0868C56.8913 21.0329 56.9417 20.9961 56.999 20.9948C57.0937 20.9916 59.3374 20.9588 61.9576 22.2334C64.3741 23.4087 67.5569 25.9691 68.9974 31.4918C69.0108 31.5428 68.9921 31.5964 68.9502 31.6293C68.9084 31.6618 68.8508 31.6668 68.8038 31.6424C68.7657 31.6227 64.9591 29.7028 61.5899 32.916C61.564 32.9404 61.5304 32.9536 61.496 32.9536ZM57.3947 21.2739C60.5176 24.0003 61.4397 31.0463 61.6029 32.5399C64.5386 29.9202 67.7364 30.9149 68.6638 31.29C67.2191 26.0566 64.1714 23.61 61.8493 22.4773C59.9142 21.5336 58.1515 21.3212 57.3947 21.2739Z" fill="#3D3D3D"/>
<path d="M55.9936 21.3293C55.9624 21.3293 55.932 21.3188 55.908 21.2988C55.8795 21.2757 55.8619 21.2418 55.8592 21.2055C55.8571 21.1742 55.8555 21.1511 55.8555 21.1277C55.8555 20.5059 56.3688 20 56.9997 20C57.6306 20 58.144 20.5059 58.144 21.1277C58.144 21.1511 58.1424 21.174 58.1408 21.1971C58.1384 21.2334 58.1202 21.2715 58.0917 21.2949C58.0632 21.318 58.0256 21.3335 57.989 21.3285C57.3816 21.2541 57.0061 21.2605 57.0026 21.261C57.0008 21.261 56.9986 21.261 56.9968 21.261C56.9936 21.2607 56.6181 21.2541 56.0104 21.3285C56.0045 21.3288 55.9989 21.3293 55.9936 21.3293ZM56.9994 20.266C56.5448 20.266 56.1701 20.6095 56.1288 21.047C56.6472 20.9908 56.9634 20.9942 56.9994 20.995C57.036 20.9942 57.3522 20.9908 57.8701 21.047C57.8288 20.6095 57.4541 20.266 56.9994 20.266Z" fill="#3D3D3D"/>
<path d="M60.0008 30.7627C59.9779 30.7627 59.9544 30.7569 59.9328 30.7446C59.932 30.7441 59.8323 30.687 59.6448 30.609C59.5763 30.5803 59.5443 30.5025 59.5731 30.435C59.6021 30.3675 59.6805 30.3357 59.7499 30.3643C59.9555 30.45 60.0648 30.5128 60.0693 30.5154C60.1333 30.5525 60.1549 30.6339 60.1173 30.697C60.0923 30.7393 60.0472 30.7627 60.0008 30.7627Z" fill="white"/>
<path d="M59.119 30.4178C59.1065 30.4178 59.0937 30.416 59.0809 30.4123C58.8932 30.3579 58.6966 30.3103 58.4969 30.2717C58.4239 30.2575 58.3764 30.1876 58.3908 30.1156C58.4055 30.0436 58.4764 29.9965 58.5492 30.011C58.7572 30.0515 58.9617 30.1006 59.1572 30.1576C59.2286 30.1784 59.2694 30.2523 59.2484 30.3227C59.231 30.3802 59.1774 30.4178 59.119 30.4178ZM54.873 30.3931C54.8143 30.3931 54.7605 30.3553 54.7437 30.2972C54.7229 30.2268 54.7642 30.1529 54.8357 30.1324C55.0271 30.0778 55.2327 30.0307 55.4468 29.9926C55.5212 29.9789 55.5903 30.0276 55.6036 30.0998C55.6167 30.1721 55.5682 30.2412 55.4948 30.2541C55.2898 30.2906 55.0935 30.3356 54.9109 30.3879C54.8981 30.3913 54.8855 30.3931 54.873 30.3931ZM57.9169 30.1816C57.9119 30.1816 57.9068 30.1813 57.9017 30.1808C57.7052 30.159 57.5028 30.144 57.2999 30.1369C57.2255 30.1343 57.1673 30.0725 57.17 29.9992C57.1727 29.9258 57.2361 29.8675 57.3095 29.8712C57.5193 29.8788 57.7287 29.894 57.9319 29.9166C58.0057 29.9248 58.0591 29.9908 58.0508 30.0636C58.0428 30.1316 57.9844 30.1816 57.9169 30.1816ZM56.0786 30.1739C56.01 30.1739 55.9514 30.1227 55.9444 30.0538C55.9372 29.9808 55.9914 29.9159 56.0655 29.9088C56.2658 29.8896 56.4748 29.8767 56.6868 29.8704C56.7628 29.8688 56.8236 29.9258 56.8258 29.9992C56.8279 30.0725 56.7695 30.1337 56.6951 30.1361C56.489 30.1421 56.286 30.1548 56.0916 30.1734C56.0874 30.1737 56.0828 30.1739 56.0786 30.1739Z" fill="white"/>
<path d="M54.0022 30.7625C53.9611 30.7625 53.9203 30.7441 53.8939 30.7092C53.8496 30.6506 53.8616 30.5678 53.9208 30.5236C53.9251 30.5205 54.0275 30.4456 54.2392 30.3486C54.3075 30.3176 54.3872 30.3467 54.4184 30.4132C54.4499 30.4797 54.4203 30.5588 54.3528 30.5896C54.1699 30.6732 54.0832 30.7357 54.0821 30.7362C54.0581 30.7541 54.0301 30.7625 54.0022 30.7625Z" fill="white"/>
<path d="M51.6917 30.9454C51.6591 30.9454 51.6266 30.9338 51.6007 30.9107C51.5999 30.9099 51.5109 30.8303 51.3487 30.7144C51.2885 30.6713 51.2749 30.5882 51.3186 30.5288C51.3621 30.4695 51.4463 30.4561 51.5069 30.4992C51.6829 30.6248 51.7789 30.711 51.7826 30.7147C51.8375 30.7643 51.8413 30.8482 51.7909 30.9023C51.7645 30.931 51.7282 30.9454 51.6917 30.9454Z" fill="white"/>
<path d="M50.8296 30.373C50.808 30.373 50.7861 30.368 50.7659 30.3572C50.5643 30.2502 50.3544 30.1554 50.1429 30.0752C50.0733 30.0489 50.0387 29.9719 50.0653 29.9036C50.092 29.835 50.1699 29.8008 50.2395 29.8271C50.4616 29.9112 50.6819 30.0108 50.8936 30.1233C50.9592 30.158 50.9837 30.2387 50.9485 30.3033C50.924 30.3477 50.8776 30.373 50.8296 30.373ZM49.5203 29.8786C49.5099 29.8786 49.4995 29.8776 49.4888 29.8749C49.2659 29.8226 49.039 29.7858 48.8144 29.7651C48.7403 29.7583 48.6859 29.6936 48.6926 29.6205C48.6995 29.5475 48.7662 29.4933 48.8395 29.5007C49.0766 29.5225 49.316 29.5614 49.5512 29.6166C49.6238 29.6334 49.6683 29.7052 49.6512 29.7766C49.6365 29.8376 49.5811 29.8786 49.5203 29.8786ZM47.4278 29.836C47.3646 29.836 47.3083 29.7922 47.2955 29.7286C47.2811 29.6565 47.3289 29.5866 47.4019 29.5727C47.639 29.527 47.8801 29.4978 48.1182 29.4857C48.1875 29.4802 48.2558 29.5383 48.2598 29.6116C48.2635 29.6849 48.2064 29.7472 48.132 29.7512C47.9067 29.7625 47.6787 29.7903 47.4542 29.8337C47.4449 29.8353 47.4363 29.836 47.4278 29.836Z" fill="white"/>
<path d="M46.4317 30.1317C46.3787 30.1317 46.3283 30.1004 46.3069 30.0489C46.2787 29.9811 46.312 29.9035 46.3808 29.8757C46.4883 29.8326 46.5971 29.7924 46.7043 29.7566C46.7752 29.733 46.8515 29.7703 46.8752 29.8397C46.8989 29.9091 46.8613 29.9845 46.7907 30.0081C46.6885 30.0423 46.5848 30.0807 46.4824 30.1217C46.4661 30.1285 46.4488 30.1317 46.4317 30.1317Z" fill="white"/>
<path d="M62.3107 30.9454C62.2742 30.9454 62.2379 30.931 62.2113 30.9023C62.1609 30.8482 62.1646 30.7643 62.2195 30.7147C62.2235 30.711 62.3193 30.6248 62.4953 30.4992C62.5558 30.4561 62.6401 30.4695 62.6835 30.5288C62.7273 30.5882 62.7139 30.6713 62.6534 30.7144C62.4913 30.83 62.4022 30.9097 62.4014 30.9107C62.3758 30.9341 62.3433 30.9454 62.3107 30.9454Z" fill="white"/>
<path d="M63.1702 30.373C63.1222 30.373 63.0755 30.3477 63.0512 30.3031C63.016 30.2384 63.0406 30.158 63.1062 30.123C63.3179 30.0106 63.5379 29.9109 63.7603 29.8268C63.8299 29.8006 63.9077 29.8347 63.9344 29.9033C63.9611 29.9717 63.9264 30.0487 63.8568 30.0749C63.6453 30.1551 63.4355 30.25 63.2339 30.3569C63.2136 30.3677 63.1918 30.373 63.1702 30.373ZM64.4795 29.8786C64.4184 29.8786 64.3632 29.8376 64.3485 29.7764C64.3312 29.7049 64.376 29.6334 64.4485 29.6163C64.6837 29.5611 64.9232 29.5222 65.1602 29.5004C65.2338 29.4933 65.3 29.5472 65.3072 29.6203C65.3141 29.6933 65.2594 29.758 65.1853 29.7648C64.9608 29.7856 64.7339 29.8224 64.5109 29.8747C64.5003 29.8776 64.4899 29.8786 64.4795 29.8786ZM66.572 29.836C66.5634 29.836 66.5546 29.8353 66.5458 29.8337C66.3213 29.7903 66.093 29.7627 65.868 29.7512C65.7936 29.7475 65.7362 29.6849 65.7402 29.6116C65.744 29.5383 65.8112 29.4802 65.8818 29.4857C66.12 29.4978 66.3608 29.527 66.5981 29.5727C66.6711 29.5869 66.7189 29.6565 66.7045 29.7286C66.6917 29.7919 66.6351 29.836 66.572 29.836Z" fill="white"/>
<path d="M67.568 30.1317C67.551 30.1317 67.5339 30.1285 67.5171 30.1217C67.4147 30.0804 67.311 30.0423 67.2088 30.0081C67.1382 29.9845 67.1006 29.9091 67.1243 29.8397C67.1483 29.7703 67.2248 29.733 67.2952 29.7566C67.4024 29.7926 67.5112 29.8326 67.6187 29.8757C67.6875 29.9033 67.7208 29.9808 67.6926 30.0489C67.6715 30.1004 67.6211 30.1317 67.568 30.1317Z" fill="white"/>
<path d="M56.9982 40.4458C56.9238 40.4458 56.8633 40.3864 56.8633 40.3128V31.3495C56.8633 31.2762 56.9235 31.2166 56.9982 31.2166C57.0729 31.2166 57.1331 31.2759 57.1331 31.3495V40.3128C57.1331 40.3861 57.0726 40.4458 56.9982 40.4458Z" fill="#3D3D3D"/>
<path d="M23.9549 38.8203C24.4184 38.8203 24.8325 38.9245 25.1971 39.1328C25.5669 39.3411 25.8846 39.638 26.1502 40.0234C26.421 40.4036 26.632 40.8516 26.783 41.3672C26.9393 41.8828 27.033 42.4453 27.0643 43.0547H27.783V45H26.9236C26.757 45.7188 26.4679 46.3594 26.0564 46.9219C25.645 47.4844 25.0877 47.9583 24.3846 48.3438C23.6866 48.7344 22.8169 49.0312 21.7752 49.2344L21.1189 47.4609C21.8221 47.3255 22.4549 47.1432 23.0174 46.9141C23.5799 46.6849 24.046 46.4089 24.4158 46.0859C24.7908 45.7682 25.0408 45.4062 25.1658 45H24.2439C23.2179 45 22.4393 44.7891 21.908 44.3672C21.382 43.9401 21.1189 43.2682 21.1189 42.3516C21.1189 41.9661 21.1762 41.5677 21.2908 41.1562C21.4106 40.7448 21.5877 40.362 21.8221 40.0078C22.0616 39.6536 22.3585 39.3672 22.7127 39.1484C23.0721 38.9297 23.4861 38.8203 23.9549 38.8203ZM24.2127 43.0547H25.3533C25.3273 42.7318 25.2804 42.4297 25.2127 42.1484C25.1502 41.8672 25.0616 41.6198 24.9471 41.4062C24.8377 41.1927 24.6997 41.0286 24.533 40.9141C24.3663 40.7943 24.1684 40.7344 23.9393 40.7344C23.6632 40.7344 23.4445 40.8229 23.283 41C23.1215 41.1771 23.007 41.3854 22.9393 41.625C22.8715 41.8646 22.8377 42.0833 22.8377 42.2812C22.8377 42.5938 22.9575 42.8021 23.1971 42.9062C23.4366 43.0052 23.7752 43.0547 24.2127 43.0547ZM29.5872 37.6484C29.9883 37.8984 30.3737 38.151 30.7435 38.4062C31.1185 38.6562 31.4675 38.9167 31.7904 39.1875C32.1133 39.4531 32.3945 39.7344 32.6341 40.0312C32.8789 40.3229 33.069 40.6328 33.2044 40.9609C33.3399 41.2891 33.4076 41.6432 33.4076 42.0234C33.4076 42.7786 33.2357 43.3724 32.8919 43.8047C32.5482 44.237 32.0482 44.5443 31.3919 44.7266C30.7409 44.9089 29.9518 45 29.0247 45H27.1185V43.0547H29.0169C29.6159 43.0547 30.1081 43.026 30.4935 42.9688C30.8841 42.9062 31.1732 42.7995 31.3607 42.6484C31.5482 42.4922 31.6419 42.2734 31.6419 41.9922C31.6419 41.7995 31.5586 41.599 31.3919 41.3906C31.2305 41.1823 31.0143 40.9688 30.7435 40.75C30.4727 40.5312 30.1758 40.3125 29.8529 40.0938C29.53 39.875 29.207 39.6589 28.8841 39.4453C28.5612 39.2318 28.2695 39.026 28.0091 38.8281C27.8112 38.6771 27.6602 38.487 27.556 38.2578C27.4518 38.0286 27.3997 37.7969 27.3997 37.5625C27.3997 37.2969 27.4649 37.0495 27.5951 36.8203C27.7253 36.5859 27.9258 36.4141 28.1966 36.3047L34.0716 33.9141V35.8281L29.5872 37.6484ZM38.9228 45C38.6415 45 38.3915 44.9661 38.1728 44.8984C37.954 44.8307 37.7743 44.7526 37.6337 44.6641C37.5191 45.4141 37.2769 46.1016 36.9071 46.7266C36.5425 47.3568 36.0399 47.8854 35.3993 48.3125C34.7587 48.7448 33.9696 49.0521 33.0321 49.2344L32.3759 47.4688C33.1623 47.2969 33.8212 47.0573 34.3524 46.75C34.8837 46.4479 35.2847 46.0573 35.5556 45.5781C35.8264 45.1042 35.9618 44.5286 35.9618 43.8516C35.9618 43.388 35.8967 42.8802 35.7665 42.3281C35.6363 41.776 35.4853 41.2474 35.3134 40.7422L37.1103 40.1484L37.5478 41.8672C37.6467 42.2422 37.7951 42.5339 37.9931 42.7422C38.1962 42.9505 38.4774 43.0547 38.8368 43.0547H39.1337V45H38.9228ZM42.7895 34.375L44.0942 35.6797L42.7895 36.9766L41.4926 35.6797L42.7895 34.375ZM42.852 39.8672C42.6853 39.8672 42.5083 39.9323 42.3208 40.0625C42.1385 40.1875 41.9822 40.3438 41.852 40.5312C41.727 40.7188 41.6645 40.9036 41.6645 41.0859C41.6645 41.2995 41.727 41.513 41.852 41.7266C41.9822 41.9349 42.1385 42.125 42.3208 42.2969C42.5083 42.4688 42.6905 42.6016 42.8676 42.6953C43.0708 42.5964 43.2635 42.4635 43.4458 42.2969C43.6333 42.125 43.7869 41.9323 43.9067 41.7188C44.0265 41.5052 44.0864 41.2891 44.0864 41.0703C44.0864 40.888 44.0187 40.7057 43.8833 40.5234C43.753 40.3411 43.5916 40.1875 43.3989 40.0625C43.2062 39.9323 43.0239 39.8672 42.852 39.8672ZM45.8286 41.0703C45.8286 41.3151 45.7999 41.5469 45.7426 41.7656C45.6905 41.9844 45.6098 42.1979 45.5004 42.4062C45.3963 42.6146 45.2609 42.8255 45.0942 43.0391C45.2192 43.0443 45.3338 43.0495 45.4379 43.0547C45.5473 43.0547 45.6463 43.0547 45.7348 43.0547C45.8286 43.0547 45.9171 43.0547 46.0004 43.0547H46.7504V45H45.8129C45.5577 45 45.2635 44.9766 44.9301 44.9297C44.5968 44.8776 44.2504 44.8073 43.8911 44.7188C43.5317 44.6302 43.1827 44.526 42.8442 44.4062C42.4952 44.5312 42.1359 44.638 41.7661 44.7266C41.3963 44.8099 41.0395 44.8776 40.6958 44.9297C40.352 44.9766 40.0447 45 39.7739 45H38.477V43.0547H39.6176C39.7218 43.0547 39.8234 43.0547 39.9223 43.0547C40.0213 43.0547 40.128 43.0521 40.2426 43.0469C40.3624 43.0417 40.4926 43.0365 40.6333 43.0312C40.477 42.8177 40.3442 42.6068 40.2348 42.3984C40.1306 42.1849 40.0499 41.9688 39.9926 41.75C39.9405 41.526 39.9145 41.2943 39.9145 41.0547C39.9145 40.6797 39.9952 40.3125 40.1567 39.9531C40.3234 39.5885 40.5447 39.2578 40.8208 38.9609C41.0968 38.6641 41.4093 38.4297 41.7583 38.2578C42.1072 38.0807 42.4692 37.9922 42.8442 37.9922C43.2296 37.9922 43.5994 38.0807 43.9536 38.2578C44.3129 38.4297 44.6333 38.6641 44.9145 38.9609C45.1958 39.2526 45.4171 39.5807 45.5786 39.9453C45.7452 40.3099 45.8286 40.6849 45.8286 41.0703ZM51.5391 45C50.9818 45 50.5312 44.9062 50.1875 44.7188C49.8438 44.526 49.5651 44.2656 49.3516 43.9375C49.0807 44.2708 48.75 44.5312 48.3594 44.7188C47.974 44.9062 47.4583 45 46.8125 45H46.0938V43.0547H46.8281C47.2344 43.0547 47.5625 43.0182 47.8125 42.9453C48.0625 42.8724 48.2448 42.7344 48.3594 42.5312C48.4792 42.3281 48.5391 42.0312 48.5391 41.6406C48.5391 41.5573 48.5339 41.4349 48.5234 41.2734C48.5182 41.112 48.5078 40.9297 48.4922 40.7266C48.4818 40.5234 48.4661 40.3203 48.4453 40.1172L50.1641 39.9062L50.3125 41.8359C50.3385 42.2161 50.4531 42.5156 50.6562 42.7344C50.8594 42.9479 51.1589 43.0547 51.5547 43.0547C52.0339 43.0547 52.3542 42.9427 52.5156 42.7188C52.6823 42.4948 52.7656 42.1354 52.7656 41.6406C52.7656 41.5573 52.7604 41.4349 52.75 41.2734C52.7448 41.112 52.7344 40.9297 52.7188 40.7266C52.7083 40.5234 52.6927 40.3203 52.6719 40.1172L54.3906 39.9062L54.5391 41.8359C54.5599 42.1953 54.651 42.4896 54.8125 42.7188C54.974 42.9427 55.2422 43.0547 55.6172 43.0547C55.8568 43.0547 56.0443 42.9922 56.1797 42.8672C56.3151 42.737 56.4115 42.5677 56.4688 42.3594C56.526 42.1458 56.5547 41.9141 56.5547 41.6641C56.5547 41.3828 56.5312 41.0938 56.4844 40.7969C56.4375 40.5 56.3854 40.2266 56.3281 39.9766C56.2708 39.7214 56.224 39.5286 56.1875 39.3984L57.9453 38.9219C58.0443 39.3073 58.125 39.7188 58.1875 40.1562C58.2552 40.5938 58.2891 41.0286 58.2891 41.4609C58.2891 42.0755 58.2057 42.6536 58.0391 43.1953C57.8724 43.7318 57.5964 44.1667 57.2109 44.5C56.8255 44.8333 56.2969 45 55.625 45C55.1458 45 54.7474 44.901 54.4297 44.7031C54.1172 44.5052 53.8568 44.2474 53.6484 43.9297C53.3724 44.263 53.0625 44.526 52.7188 44.7188C52.375 44.9062 51.9818 45 51.5391 45Z" fill="#007DF0"/>
<path d="M45.5516 36.0106C45.5516 36.3084 45.5231 36.5978 45.4683 36.8786H36.5833C36.5285 36.5978 36.5 36.3063 36.5 36.0106C36.5 35.4957 36.5877 34.9999 36.7455 34.5382C37.3572 32.7702 39.043 31.5 41.0247 31.5C43.0065 31.5 44.6923 32.7702 45.3039 34.5382C45.4661 34.9999 45.5516 35.4957 45.5516 36.0106Z" fill="#FF8F00"/>
</svg>
