<svg width="49" height="40" viewBox="0 0 49 40" fill="none" xmlns="http://www.w3.org/2000/svg">
<path d="M24.6205 21.53C24.6005 21.53 24.5705 21.53 24.5505 21.53C24.5205 21.53 24.4805 21.53 24.4505 21.53C22.1805 21.46 20.4805 19.69 20.4805 17.51C20.4805 15.29 22.2905 13.48 24.5105 13.48C26.7305 13.48 28.5405 15.29 28.5405 17.51C28.5305 19.7 26.8205 21.46 24.6505 21.53C24.6305 21.53 24.6305 21.53 24.6205 21.53ZM24.5005 14.97C23.1005 14.97 21.9705 16.11 21.9705 17.5C21.9705 18.87 23.0405 19.98 24.4005 20.03C24.4305 20.02 24.5305 20.02 24.6305 20.03C25.9705 19.96 27.0205 18.86 27.0305 17.5C27.0305 16.11 25.9005 14.97 24.5005 14.97Z" fill="#797979"/>
<path d="M24.5008 30.75C21.8108 30.75 19.2408 29.75 17.2508 27.93C17.0708 27.77 16.9908 27.53 17.0108 27.3C17.1408 26.11 17.8808 25 19.1108 24.18C22.0908 22.2 26.9208 22.2 29.8908 24.18C31.1208 25.01 31.8608 26.11 31.9908 27.3C32.0208 27.54 31.9308 27.77 31.7508 27.93C29.7608 29.75 27.1908 30.75 24.5008 30.75ZM18.5808 27.1C20.2408 28.49 22.3308 29.25 24.5008 29.25C26.6708 29.25 28.7608 28.49 30.4208 27.1C30.2408 26.49 29.7608 25.9 29.0508 25.42C26.5908 23.78 22.4208 23.78 19.9408 25.42C19.2308 25.9 18.7608 26.49 18.5808 27.1Z" fill="#797979"/>
<path d="M24.5 30.75C18.57 30.75 13.75 25.93 13.75 20C13.75 14.07 18.57 9.25 24.5 9.25C30.43 9.25 35.25 14.07 35.25 20C35.25 25.93 30.43 30.75 24.5 30.75ZM24.5 10.75C19.4 10.75 15.25 14.9 15.25 20C15.25 25.1 19.4 29.25 24.5 29.25C29.6 29.25 33.75 25.1 33.75 20C33.75 14.9 29.6 10.75 24.5 10.75Z" fill="#797979"/>
</svg>
