<svg width="49" height="40" viewBox="0 0 49 40" fill="none" xmlns="http://www.w3.org/2000/svg">
<path d="M27.7405 30.27H27.6105C23.1705 30.27 21.0305 28.52 20.6605 24.6C20.6205 24.19 20.9205 23.82 21.3405 23.78C21.7405 23.74 22.1205 24.05 22.1605 24.46C22.4505 27.6 23.9305 28.77 27.6205 28.77H27.7505C31.8205 28.77 33.2605 27.33 33.2605 23.26V16.74C33.2605 12.67 31.8205 11.23 27.7505 11.23H27.6205C23.9105 11.23 22.4305 12.42 22.1605 15.62C22.1105 16.03 21.7605 16.34 21.3405 16.3C20.9205 16.27 20.6205 15.9 20.6505 15.49C20.9905 11.51 23.1405 9.72998 27.6105 9.72998H27.7405C32.6505 9.72998 34.7505 11.83 34.7505 16.74V23.26C34.7505 28.17 32.6505 30.27 27.7405 30.27Z" fill="#797979"/>
<path d="M27.5011 20.75H16.1211C15.7111 20.75 15.3711 20.41 15.3711 20C15.3711 19.59 15.7111 19.25 16.1211 19.25H27.5011C27.9111 19.25 28.2511 19.59 28.2511 20C28.2511 20.41 27.9111 20.75 27.5011 20.75Z" fill="#797979"/>
<path d="M18.3514 24.1C18.1614 24.1 17.9714 24.03 17.8214 23.88L14.4714 20.53C14.1814 20.24 14.1814 19.76 14.4714 19.47L17.8214 16.12C18.1114 15.83 18.5914 15.83 18.8814 16.12C19.1714 16.41 19.1714 16.89 18.8814 17.18L16.0614 20L18.8814 22.82C19.1714 23.11 19.1714 23.59 18.8814 23.88C18.7414 24.03 18.5414 24.1 18.3514 24.1Z" fill="#797979"/>
</svg>
