<svg width="49" height="40" viewBox="0 0 49 40" fill="none" xmlns="http://www.w3.org/2000/svg">
<path d="M24.5199 28.53C22.1899 28.53 19.8599 28.16 17.6499 27.42C16.8099 27.13 16.1699 26.54 15.8899 25.77C15.5999 25 15.6999 24.15 16.1599 23.39L17.3099 21.48C17.5499 21.08 17.7699 20.28 17.7699 19.81V16.92C17.7699 13.2 20.7999 10.17 24.5199 10.17C28.2399 10.17 31.2699 13.2 31.2699 16.92V19.81C31.2699 20.27 31.4899 21.08 31.7299 21.49L32.8699 23.39C33.2999 24.11 33.3799 24.98 33.0899 25.77C32.7999 26.56 32.1699 27.16 31.3799 27.42C29.1799 28.16 26.8499 28.53 24.5199 28.53ZM24.5199 11.67C21.6299 11.67 19.2699 14.02 19.2699 16.92V19.81C19.2699 20.54 18.9699 21.62 18.5999 22.25L17.4499 24.16C17.2299 24.53 17.1699 24.92 17.2999 25.25C17.4199 25.59 17.7199 25.85 18.1299 25.99C22.3099 27.39 26.7399 27.39 30.9199 25.99C31.2799 25.87 31.5599 25.6 31.6899 25.24C31.8199 24.88 31.7899 24.49 31.5899 24.16L30.4399 22.25C30.0599 21.6 29.7699 20.53 29.7699 19.8V16.92C29.7699 14.02 27.4199 11.67 24.5199 11.67Z" fill="#797979"/>
<path d="M26.3806 11.94C26.3106 11.94 26.2406 11.93 26.1706 11.91C25.8806 11.83 25.6006 11.77 25.3306 11.73C24.4806 11.62 23.6606 11.68 22.8906 11.91C22.6106 12 22.3106 11.91 22.1206 11.7C21.9306 11.49 21.8706 11.19 21.9806 10.92C22.3906 9.86999 23.3906 9.17999 24.5306 9.17999C25.6706 9.17999 26.6706 9.85999 27.0806 10.92C27.1806 11.19 27.1306 11.49 26.9406 11.7C26.7906 11.86 26.5806 11.94 26.3806 11.94Z" fill="#797979"/>
<path d="M24.5195 30.81C23.5295 30.81 22.5695 30.41 21.8695 29.71C21.1695 29.01 20.7695 28.05 20.7695 27.06H22.2695C22.2695 27.65 22.5095 28.23 22.9295 28.65C23.3495 29.07 23.9295 29.31 24.5195 29.31C25.7595 29.31 26.7695 28.3 26.7695 27.06H28.2695C28.2695 29.13 26.5895 30.81 24.5195 30.81Z" fill="#797979"/>
</svg>
