<svg width="48" height="40" viewBox="0 0 48 40" fill="none" xmlns="http://www.w3.org/2000/svg">
<path d="M29 28.75H19C14.59 28.75 13.25 27.41 13.25 23V22.5C13.25 22.09 13.59 21.75 14 21.75C14.96 21.75 15.75 20.96 15.75 20C15.75 19.04 14.96 18.25 14 18.25C13.59 18.25 13.25 17.91 13.25 17.5V17C13.25 12.59 14.59 11.25 19 11.25H29C33.41 11.25 34.75 12.59 34.75 17V18C34.75 18.41 34.41 18.75 34 18.75C33.04 18.75 32.25 19.54 32.25 20.5C32.25 21.46 33.04 22.25 34 22.25C34.41 22.25 34.75 22.59 34.75 23C34.75 27.41 33.41 28.75 29 28.75ZM14.75 23.16C14.77 26.6 15.48 27.25 19 27.25H29C32.34 27.25 33.15 26.66 33.24 23.66C31.81 23.32 30.75 22.03 30.75 20.5C30.75 18.97 31.82 17.68 33.25 17.34V17C33.25 13.43 32.58 12.75 29 12.75H19C15.48 12.75 14.77 13.4 14.75 16.84C16.18 17.18 17.25 18.47 17.25 20C17.25 21.53 16.18 22.82 14.75 23.16Z" fill="#797979"/>
<path d="M22 15.25C21.59 15.25 21.25 14.91 21.25 14.5V12C21.25 11.59 21.59 11.25 22 11.25C22.41 11.25 22.75 11.59 22.75 12V14.5C22.75 14.91 22.41 15.25 22 15.25Z" fill="#797979"/>
<path d="M22 22.58C21.59 22.58 21.25 22.24 21.25 21.83V18.16C21.25 17.75 21.59 17.41 22 17.41C22.41 17.41 22.75 17.75 22.75 18.16V21.83C22.75 22.25 22.41 22.58 22 22.58Z" fill="#797979"/>
<path d="M22 28.75C21.59 28.75 21.25 28.41 21.25 28V25.5C21.25 25.09 21.59 24.75 22 24.75C22.41 24.75 22.75 25.09 22.75 25.5V28C22.75 28.41 22.41 28.75 22 28.75Z" fill="#797979"/>
</svg>
